<svg width="255" height="254" viewBox="0 0 255 254" fill="none" xmlns="http://www.w3.org/2000/svg">
<g id="Group">
<path id="Vector" fill-rule="evenodd" clip-rule="evenodd" d="M82.3185 151.217C89.1573 151.217 102.761 150.842 121.565 143.103C143.478 134.086 187.073 117.715 218.522 100.901C240.517 89.1398 250.159 73.5854 250.159 52.6388C250.159 23.5674 226.581 0 197.498 0H75.6409C33.8655 0 0 33.851 0 75.6086C0 117.366 31.7081 151.217 82.3185 151.217Z" fill="#39594D"/>
<path id="Vector_2" fill-rule="evenodd" clip-rule="evenodd" d="M102.929 203.283C102.929 182.815 115.257 164.36 134.17 156.513L172.545 140.594C211.362 124.491 254.086 153.004 254.086 195.014C254.086 227.56 227.686 253.942 195.124 253.933L153.576 253.923C125.602 253.915 102.929 231.246 102.929 203.283Z" fill="#D18EE2"/>
<path id="Vector_3" d="M43.6048 161.185C19.5229 161.185 0 180.697 0 204.77V210.415C0 234.486 19.5222 254 43.604 254C67.6859 254 87.2088 234.486 87.2088 210.415V204.77C87.2088 180.697 67.6867 161.185 43.6048 161.185Z" fill="#FF7759"/>
</g>
</svg>
